<?xml version="1.0" encoding="UTF-8"?>
<svg width="15px" height="10px" viewBox="0 0 15 10" version="1.1" xmlns="http://www.w3.org/2000/svg" xmlns:xlink="http://www.w3.org/1999/xlink">
    <!-- Generator: Sketch 51.3 (57544) - http://www.bohemiancoding.com/sketch -->
    <title>摄像头</title>
    <desc>Created with Sketch.</desc>
    <defs></defs>
    <g id="Page-1" stroke="none" stroke-width="1" fill="none" fill-rule="evenodd">
        <g id="11消防管理" transform="translate(-310.000000, -268.000000)" fill="#FFFFFF">
            <g id="管理菜单" transform="translate(283.000000, 95.000000)">
                <g id="安防管理" transform="translate(27.000000, 171.000000)">
                    <path d="M10.4347797,11.0624481 C10.4347797,11.5793409 10.065169,12 9.61099245,12 L0.82378725,12 C0.36961068,12 0,11.5793409 0,11.0624481 L0,2.93745422 C0,2.42065911 0.36961068,2 0.82378725,2 L9.61099245,2 C10.065169,2 10.4347797,2.42065911 10.4347797,2.93745422 L10.4347797,11.0624481 Z M14.1199395,2.84302751 L11.7391411,4.52905813 L11.7391411,9.46991629 L14.1038424,11.1429562 C14.129259,11.1669109 14.2671328,11.2856585 14.4817246,11.2856585 C14.7675497,11.2856585 15,11.0138063 15,10.679589 L15,3.32033776 C15,2.98609605 14.7675497,2.71424385 14.4817246,2.71424385 C14.2671328,2.71424385 14.129259,2.83301589 14.1199395,2.84302751 Z" id="摄像头"></path>
                </g>
            </g>
        </g>
    </g>
</svg>