<?xml version="1.0" encoding="UTF-8"?>
<svg width="11px" height="19px" viewBox="0 0 11 19" version="1.1" xmlns="http://www.w3.org/2000/svg" xmlns:xlink="http://www.w3.org/1999/xlink">
    <!-- Generator: Sketch 51.3 (57544) - http://www.bohemiancoding.com/sketch -->
    <title>消防</title>
    <desc>Created with Sketch.</desc>
    <defs>
        <polygon id="path-1" points="0 0.0134237539 6.60311868 0.0134237539 6.60311868 2.94235832 0 2.94235832"></polygon>
    </defs>
    <g id="Page-1" stroke="none" stroke-width="1" fill="none" fill-rule="evenodd">
        <g id="11消防管理" transform="translate(-310.000000, -221.000000)">
            <g id="管理菜单" transform="translate(283.000000, 95.000000)">
                <g id="消防管理" transform="translate(27.000000, 126.000000)">
                    <g id="消防">
                        <g id="Group-4" transform="translate(0.000000, 0.313850)">
                            <mask id="mask-2" fill="white">
                                <use xlink:href="#path-1"></use>
                            </mask>
                            <g id="Clip-2"></g>
                            <path d="M5.18704396,1.29195172 C5.01875604,1.81600889 4.84045934,1.4699047 4.44438681,1.41058704 L4.44438681,2.19180813 L6.60311868,2.19180813 L6.60311868,1.13369886 L5.19695604,1.13369886 C5.20686813,1.22273571 5.20686813,1.28205337 5.18704396,1.29195172 Z" id="Fill-1" fill="#FFFFFF" mask="url(#mask-2)"></path>
                            <path d="M5.18704396,1.29195172 C5.20686813,1.28205337 5.20686813,1.22273571 5.19695604,1.13369886 C5.17713187,0.807415502 5.01875604,0.0657878018 5.01875604,0.0657878018 C5.01875604,-0.0430457433 4.9295956,0.0755895807 4.8107956,0.0755895807 C4.8107956,0.0755895807 2.26583077,0.135003812 0.463595604,0.0162719187 C0.225995604,0.00637357052 0.225995604,0.0162719187 0.0972593407,0.144805591 C-0.0216373626,0.30305845 -0.0315494505,0.797493011 0.0675230769,0.88652986 C0.107098901,0.926050826 0.156659341,0.945847522 0.216083516,0.945847522 C0.216083516,0.945847522 0.780516484,0.728277001 3.64232967,0.74809784 C3.72148132,0.74809784 3.81061758,0.866733164 3.66208132,0.95574587 C3.16693626,1.27215502 1.63206154,1.82590724 1.08742857,2.05337611 C0.968628571,2.10279543 0.879492308,2.21162897 0.849828571,2.30054511 C0.820092308,2.419277 0.800268132,2.61705083 0.800268132,2.76538119 C0.800268132,2.89391487 0.948804396,2.98295172 1.0677011,2.92353748 C1.73110989,2.55773316 2.73131209,1.89512325 4.06806593,1.45020457 C4.20669011,1.40068869 4.3354989,1.40068869 4.44438681,1.42048539 C4.84045934,1.4699047 5.01875604,1.81600889 5.18704396,1.29195172 Z" id="Fill-3" fill="#FFFFFF" mask="url(#mask-2)"></path>
                        </g>
                        <path d="M0.968628571,3.10885388 C1.09736484,3.03961372 1.23598901,2.96049936 1.38454945,2.87158323 C2.01829451,2.49575985 2.88966374,1.99142694 3.96909011,1.63549682 C4.05822637,1.60580178 4.13737802,1.59590343 4.22651429,1.59590343 C4.38498681,1.59590343 4.5136989,1.64532274 4.61277143,1.69481449 L4.66225934,1.71453875 C4.74148352,1.7442338 4.80088352,1.77395299 4.86028352,1.77395299 C4.91968352,1.77395299 4.9889956,1.7442338 5.05830769,1.50686658 L5.06824396,1.49696823 L5.07815604,1.49696823 C5.09798022,1.41795044 5.01875604,0.903695044 4.91968352,0.399337992 C4.9295956,0.389439644 4.93950769,0.389439644 4.94944396,0.379637865 C4.96917143,0.369739517 4.9889956,0.359817027 4.97908352,0.359817027 L4.97908352,0.389439644 C5.08806813,0.923491741 5.18704396,1.49696823 5.15738022,1.58600508 L5.14746813,1.58600508 L5.13755604,1.59590343 C5.05830769,1.83327065 4.9889956,1.86286912 4.93950769,1.86286912 C4.89004396,1.86286912 4.82070769,1.83327065 4.74148352,1.80355146 L4.6918989,1.78375476 C4.58301099,1.73433545 4.4542989,1.68491614 4.30576264,1.68491614 C4.22651429,1.68491614 4.13737802,1.69481449 4.04831429,1.7244371 C2.98873626,2.08043964 2.11727033,2.5847967 1.4835978,2.96049936 C1.33506154,3.04953621 1.1865011,3.12865057 1.0677011,3.19786658 C1.04787692,3.20776493 1.02802857,3.21766328 1.0082044,3.21766328 C0.968628571,3.21766328 0.929076923,3.19786658 0.899316484,3.16817154 C0.879492308,3.14844727 0.86958022,3.13854892 0.86958022,3.11875222 C0.889404396,3.12865057 0.899316484,3.12865057 0.919164835,3.12865057 C0.929076923,3.12865057 0.948804396,3.11875222 0.968628571,3.10885388 Z" id="Fill-5" fill="#FFFFFF"></path>
                        <path d="M5.13755604,1.67501779 C5.13755604,1.78375476 5.22669231,1.87276747 5.33558022,1.87276747 L7.1279033,1.87276747 C7.23688791,1.87276747 7.32602418,1.78375476 7.32602418,1.67501779 L7.32602418,0.794958069 C7.32602418,0.686124524 7.23688791,0.597111817 7.1279033,0.597111817 L5.33558022,0.597111817 C5.22669231,0.597111817 5.13755604,0.686124524 5.13755604,0.794958069 L5.13755604,1.67501779 Z" id="Fill-6" fill="#FFFFFF"></path>
                        <path d="M5.31575604,1.16034607 C5.31575604,1.2689505 5.40651297,1.35770353 5.52747297,1.35770353 C5.64853143,1.35770353 5.73921451,1.2689505 5.73921451,1.16034607 C5.73921451,1.05183802 5.64853143,0.963012706 5.52747297,0.963012706 C5.40651297,0.963012706 5.31575604,1.05183802 5.31575604,1.16034607 Z" id="Fill-7" fill="#FFFFFF"></path>
                        <path d="M5.34549231,1.16076239 C5.39543129,1.16076239 5.44549231,1.20029652 5.44549231,1.23973428 C5.44549231,1.27924432 5.39543129,1.31868208 5.34549231,1.31868208 L5.34549231,1.16076239 Z" id="Fill-8" fill="#FFFFFF"></path>
                        <path d="M5.38506813,1.16049179 C5.38506813,1.23946368 5.44478119,1.28875487 5.5241964,1.28875487 C5.60373292,1.28875487 5.66334892,1.22956208 5.66334892,1.16049179 C5.66334892,1.08154399 5.60373292,1.03222872 5.5241964,1.03222872 C5.44478119,1.03222872 5.38506813,1.0914215 5.38506813,1.16049179 Z" id="Fill-9" fill="#FFFFFF"></path>
                        <path d="M5.52369231,0.00381448539 C4.89985934,0.00381448539 4.38498681,0.498273189 4.38498681,1.12126557 C4.38498681,1.7442338 4.89004396,2.2386925 5.52369231,2.2386925 C6.14764615,2.2386925 6.66251868,1.7442338 6.66251868,1.12126557 C6.66251868,0.508171537 6.14764615,0.00381448539 5.52369231,0.00381448539 Z M7.02892747,0.824556544 C7.45473626,0.597111817 10.4452857,2.74302541 10.6234857,4.63170267 C10.8512703,7.03470775 10.7918703,14.3028717 10.7918703,14.3028717 L10.0788527,14.3028717 C10.0788527,14.3028717 10.0689407,6.71822618 9.91049231,4.95808259 C9.7422044,3.10885388 6.8309033,1.36843456 6.8309033,1.36843456 C6.8309033,1.36843456 6.76159121,0.972911055 7.02892747,0.824556544 Z" id="Fill-10" fill="#FFFFFF"></path>
                        <path d="M10.8215099,16.9826684 L10.0590286,16.9826684 C9.96005275,16.9826684 9.89074066,16.9036264 9.89074066,16.8146137 L9.89074066,14.3424651 C9.89074066,14.243554 9.96998901,14.1743139 10.0590286,14.1743139 L10.8215099,14.1743139 C10.9205824,14.1743139 10.9898945,14.2534524 10.9898945,14.3424651 L10.9898945,16.8146137 C10.9898945,16.9036264 10.9106703,16.9826684 10.8215099,16.9826684 Z M1.79050989,18.2385273 C1.79050989,18.802202 1.90933407,18.9999517 2.24607912,18.9999517 L8.91038681,18.9999517 C9.24705934,18.9999517 9.36585934,18.802202 9.36585934,18.2385273 L9.36585934,16.9530457 L1.79050989,16.9530457 L1.79050989,18.2385273 Z M9.37577143,7.47965057 L9.37577143,6.78744219 C9.37577143,5.2546709 8.14790549,3.99881194 6.60311868,3.91979416 L6.60311868,2.42654384 L4.44438681,2.42654384 L4.44438681,3.92959593 C2.959,4.06802795 1.80044615,5.29428844 1.80044615,6.78744219 L1.80044615,15.5785273 L9.37577143,15.5785273 L9.37577143,7.47965057 Z M1.79050989,16.9530457 L9.36585934,16.9530457 L9.36585934,16.2707357 L1.79050989,16.2707357 L1.79050989,16.9530457 Z M5.2077956,1.20037992 C5.2077956,1.16076239 5.15785662,1.12126557 5.1077956,1.12126557 L5.1077956,1.26959593 C5.15785662,1.26959593 5.2077956,1.23990089 5.2077956,1.20037992 Z" id="Fill-11" fill="#FFFFFF"></path>
                    </g>
                </g>
            </g>
        </g>
    </g>
</svg>